<?xml version="1.0" encoding="UTF-8"?>
<svg id="_레이어_2" data-name="레이어 2" xmlns="http://www.w3.org/2000/svg" viewBox="0 0 450 512">
  <defs>
    <style>
      .cls-1 {
        fill: #fff;
        stroke-width: 0px;
      }
    </style>
  </defs>
  <g id="Capa_1" data-name="Capa 1">
    <path class="cls-1" d="M310.48,338.29c54.48-85.49,47.63-74.83,49.2-77.06,19.84-27.98,30.32-60.91,30.32-95.23C390,74.98,316.14,0,225,0S60,74.83,60,166c0,34.3,10.7,68.09,31.19,96.45l48.33,75.84C87.85,346.23,0,369.89,0,422c0,18.99,12.4,46.07,71.46,67.16,41.24,14.73,95.77,22.84,153.54,22.84,108.02,0,225-30.47,225-90,0-52.12-87.74-75.76-139.52-83.71ZM116.25,245.95c-.16-.26-.34-.51-.52-.76-17.05-23.45-25.73-51.25-25.73-79.19,0-75.02,60.41-136,135-136s135,61.01,135,136c0,27.99-8.52,54.84-24.65,77.67-1.45,1.91,6.09-9.81-110.35,172.92l-108.75-170.64ZM225,482c-117.99,0-195-34.68-195-60,0-17.02,39.57-44.99,127.25-55.9l55.1,86.46c2.75,4.32,7.52,6.94,12.65,6.94s9.9-2.62,12.65-6.94l55.1-86.46c87.68,10.91,127.25,38.89,127.25,55.9,0,25.1-76.31,60-195,60Z"/>
    <path class="cls-1" d="M225,91c-41.35,0-75,33.65-75,75s33.65,75,75,75,75-33.65,75-75-33.64-75-75-75ZM225,211c-24.81,0-45-20.19-45-45s20.19-45,45-45,45,20.19,45,45-20.19,45-45,45Z"/>
  </g>
</svg>